<?xml version="1.0" encoding="utf-8"?>
<!-- Generator: Adobe Illustrator 16.0.0, SVG Export Plug-In . SVG Version: 6.00 Build 0)  -->
<!DOCTYPE svg PUBLIC "-//W3C//DTD SVG 1.1//EN" "http://www.w3.org/Graphics/SVG/1.1/DTD/svg11.dtd">
<svg version="1.1" id="Layer_1" xmlns="http://www.w3.org/2000/svg" xmlns:xlink="http://www.w3.org/1999/xlink" x="0px" y="0px"
	 width="930.833px" height="259.743px" viewBox="174 269.393 930.833 259.743" enable-background="new 174 269.393 930.833 259.743"
	 xml:space="preserve">
<g>
	<g>
		<path d="M308.871,287.559c0,10.081-2.976,18.098-8.866,24.109c-5.891,6.013-14.454,8.988-25.567,8.988h-54.171v-50.952h-44.272
			V444.97h44.272v-84.9h59.029c22.531,0,40.446-6.376,53.807-19.19c13.36-12.813,20.041-30.547,20.041-53.32
			c0-6.315-0.546-12.268-1.64-17.794h-47.004C307.353,274.684,308.871,280.575,308.871,287.559"/>
		<path d="M499.623,286.223c0,22.105-13.117,33.158-39.353,33.158h-49.191v-49.616h-44.271v175.327h44.271v-87.026h64.01
			c8.319,0,13.968,1.458,16.883,4.434c2.976,2.976,4.433,8.623,4.433,16.883v65.648h44.272v-76.762
			c0-21.681-11.903-32.491-35.771-32.491c26.054-9.838,39.05-29.211,39.05-58.057c0-2.733-0.183-5.345-0.547-7.956h-47.551
			C498.348,274.198,499.623,279.725,499.623,286.223"/>
	</g>
	<rect x="557.56" y="269.704" width="44.271" height="175.326"/>
	<rect x="826.045" y="269.704" width="43.301" height="175.326"/>
	<polygon points="783.96,269.704 744.972,395.84 704.646,269.704 663.654,269.704 720.376,445.031 768.96,445.031 824.163,269.704 	
		"/>
	<rect x="618.35" y="269.704" width="43.301" height="175.326"/>
	<g>
		<path d="M1042.729,272.437c11.6,13.969,17.369,33.28,17.369,57.754c0,24.475-5.77,43.726-17.369,57.754
			c-11.599,13.968-27.692,21.013-48.219,21.013h-3.279c-20.588,0-36.62-6.983-48.22-21.013
			c-11.6-13.968-17.368-33.279-17.368-57.754c0-24.474,5.769-43.725,17.368-57.754c0.79-0.972,1.7-1.821,2.49-2.732h-51.499
			c-8.441,17.065-12.692,37.166-12.692,60.486c0,36.316,10.264,65.103,30.851,86.297c20.588,21.256,47.49,31.822,80.71,31.822
			c33.219,0,60.122-10.627,80.71-31.822c20.526-21.194,30.851-49.98,30.851-86.297c0-23.259-4.251-43.421-12.692-60.486h-51.499
			C1041.028,270.615,1041.939,271.465,1042.729,272.437"/>
		<path d="M220.267,500.599h54.11c11.174,0,19.676,2.976,25.567,8.866c4.98,4.979,7.773,11.6,8.502,19.615H352.9
			c-0.79-20.647-7.409-36.923-19.859-48.826c-13.36-12.692-31.276-19.009-53.806-19.009H175.995v67.835h44.272V500.599z"/>
		<path d="M411.019,500.599h49.191c24.96,0,38.017,9.474,39.231,28.481h44.271c0.121-1.761,0.183-3.644,0.183-5.465
			c0-17.916-6.802-32.795-20.345-44.637c-13.543-11.843-30.304-17.733-50.224-17.733H366.747v67.835h44.272V500.599z"/>
	</g>
	<rect x="557.56" y="461.185" width="44.271" height="67.835"/>
	<polygon points="618.35,461.185 618.35,529.02 661.65,529.02 661.65,509.465 667.966,529.02 708.959,529.02 687.218,461.185 	"/>
	<polygon points="800.782,461.185 779.77,529.02 819.973,529.02 826.045,509.769 826.045,529.02 869.346,529.02 869.346,461.185 	
		"/>
	<g>
		<path d="M942.95,518.271c11.6-13.968,27.692-21.013,48.22-21.013h3.279c20.526,0,36.619,6.984,48.219,21.013
			c2.733,3.279,5.102,6.862,7.166,10.749h47.369c-5.101-15.121-12.996-28.239-23.684-39.292
			c-20.588-21.194-47.491-31.822-80.71-31.822c-33.22,0-60.123,10.628-80.71,31.822c-10.688,11.053-18.522,24.171-23.685,39.292
			h47.369C937.909,525.194,940.278,521.55,942.95,518.271"/>
	</g>
</g>
<g>
	<g>
		<path fill="#FFFFFF" d="M308.871,287.559c0,10.081-2.976,18.098-8.866,24.109c-5.891,6.013-14.454,8.988-25.567,8.988h-54.171
			v-50.952h-44.272V444.97h44.272v-84.9h59.029c22.531,0,40.446-6.376,53.807-19.19c13.36-12.813,20.041-30.547,20.041-53.32
			c0-6.315-0.546-12.268-1.64-17.794h-47.004C307.353,274.684,308.871,280.575,308.871,287.559"/>
		<path fill="#FFFFFF" d="M499.623,286.223c0,22.105-13.117,33.158-39.353,33.158h-49.191v-49.616h-44.271v175.327h44.271v-87.026
			h64.01c8.319,0,13.968,1.458,16.883,4.434c2.976,2.976,4.433,8.623,4.433,16.883v65.648h44.272v-76.762
			c0-21.681-11.903-32.491-35.771-32.491c26.054-9.838,39.05-29.211,39.05-58.057c0-2.733-0.183-5.345-0.547-7.956h-47.551
			C498.348,274.198,499.623,279.725,499.623,286.223"/>
	</g>
	<rect x="557.56" y="269.704" fill="#FFFFFF" width="44.271" height="175.326"/>
	<rect x="826.045" y="269.704" fill="#FFFFFF" width="43.301" height="175.326"/>
	<polygon fill="#FFFFFF" points="783.96,269.704 744.972,395.84 704.646,269.704 663.654,269.704 720.376,445.031 768.96,445.031 
		824.163,269.704 	"/>
	<rect x="618.35" y="269.704" fill="#FFFFFF" width="43.301" height="175.326"/>
	<g>
		<path fill="#FFFFFF" d="M1042.729,272.437c11.6,13.969,17.369,33.28,17.369,57.754c0,24.475-5.77,43.726-17.369,57.754
			c-11.599,13.968-27.692,21.013-48.219,21.013h-3.279c-20.588,0-36.62-6.983-48.22-21.013
			c-11.6-13.968-17.368-33.279-17.368-57.754c0-24.474,5.769-43.725,17.368-57.754c0.79-0.972,1.7-1.821,2.49-2.732h-51.499
			c-8.441,17.065-12.692,37.166-12.692,60.486c0,36.316,10.264,65.103,30.851,86.297c20.588,21.256,47.49,31.822,80.71,31.822
			c33.219,0,60.122-10.627,80.71-31.822c20.526-21.194,30.851-49.98,30.851-86.297c0-23.259-4.251-43.421-12.692-60.486h-51.499
			C1041.028,270.615,1041.939,271.465,1042.729,272.437"/>
		<path fill="#FFFFFF" d="M220.267,500.599h54.11c11.174,0,19.676,2.976,25.567,8.866c4.98,4.979,7.773,11.6,8.502,19.615H352.9
			c-0.79-20.647-7.409-36.923-19.859-48.826c-13.36-12.692-31.276-19.009-53.806-19.009H175.995v67.835h44.272V500.599z"/>
		<path fill="#FFFFFF" d="M411.019,500.599h49.191c24.96,0,38.017,9.474,39.231,28.481h44.271c0.121-1.761,0.183-3.644,0.183-5.465
			c0-17.916-6.802-32.795-20.345-44.637c-13.543-11.843-30.304-17.733-50.224-17.733H366.747v67.835h44.272V500.599z"/>
	</g>
	<rect x="557.56" y="461.185" fill="#FFFFFF" width="44.271" height="67.835"/>
	<polygon fill="#FFFFFF" points="618.35,461.185 618.35,529.02 661.65,529.02 661.65,509.465 667.966,529.02 708.959,529.02 
		687.218,461.185 	"/>
	<polygon fill="#FFFFFF" points="800.782,461.185 779.77,529.02 819.973,529.02 826.045,509.769 826.045,529.02 869.346,529.02 
		869.346,461.185 	"/>
	<g>
		<path fill="#FFFFFF" d="M942.95,518.271c11.6-13.968,27.692-21.013,48.22-21.013h3.279c20.526,0,36.619,6.984,48.219,21.013
			c2.733,3.279,5.102,6.862,7.166,10.749h47.369c-5.101-15.121-12.996-28.239-23.684-39.292
			c-20.588-21.194-47.491-31.822-80.71-31.822c-33.22,0-60.123,10.628-80.71,31.822c-10.688,11.053-18.522,24.171-23.685,39.292
			h47.369C937.909,525.194,940.278,521.55,942.95,518.271"/>
	</g>
</g>
</svg>
